<svg xmlns="http://www.w3.org/2000/svg" xmlns:xlink="http://www.w3.org/1999/xlink" id="Capa_1" width="512" height="512" x="0" y="0" enable-background="new 0 0 516.301 516.301" version="1.1" viewBox="0 0 516.301 516.301" xml:space="preserve"><g><path fill="#FFF" d="M459.101,237.101c0-57.4-47.801-103.3-105.2-103.3c-21,0-38.2,5.7-55.5,15.3c-24.9-32.5-63.1-53.5-107.1-53.5 c-74.6,0-133.9,59.3-133.9,133.9c0,1.9,0,5.7,0,7.6c-34.4,15.3-57.4,47.801-57.4,88c0,53.5,42.1,95.6,95.6,95.6h325.1 c53.5,0,95.6-42.1,95.6-95.6C516.5,284.901,493.5,252.401,459.101,237.101z M315.601,305.901H267.8V353.7c0,5.701-3.8,9.6-9.6,9.6 s-9.6-3.799-9.6-9.6v-47.799h-47.8c-5.7,0-9.6-3.801-9.6-9.602c0-5.799,3.8-9.6,9.6-9.6h47.9v-47.799c0-5.7,3.8-9.6,9.6-9.6 c5.801,0,9.601,3.8,9.601,9.6V286.7h47.8c5.7,0,9.6,3.801,9.6,9.6C325.3,302.101,321.4,305.901,315.601,305.901z"/></g></svg>